<mxfile host="app.diagrams.net" modified="2021-07-21T07:51:20.459Z" agent="5.0 (Windows NT 10.0; Win64; x64) AppleWebKit/537.36 (KHTML, like Gecko) Chrome/91.0.4472.124 Safari/537.36" etag="4kwUNHAQmYvHQ7J-YBXz" version="14.6.6" type="github">
  <diagram name="Page-1" id="e7e014a7-5840-1c2e-5031-d8a46d1fe8dd">
    <mxGraphModel dx="1038" dy="578" grid="1" gridSize="10" guides="1" tooltips="1" connect="1" arrows="1" fold="1" page="1" pageScale="1" pageWidth="4681" pageHeight="3300" background="none" math="0" shadow="0">
      <root>
        <mxCell id="0" />
        <mxCell id="1" parent="0" />
        <mxCell id="SFdsLE2ytojVS_g6Q4z1-54" value="" style="edgeStyle=orthogonalEdgeStyle;rounded=0;orthogonalLoop=1;jettySize=auto;html=1;" edge="1" parent="1" source="SFdsLE2ytojVS_g6Q4z1-41" target="SFdsLE2ytojVS_g6Q4z1-47">
          <mxGeometry relative="1" as="geometry" />
        </mxCell>
        <mxCell id="SFdsLE2ytojVS_g6Q4z1-41" value="" style="ellipse;html=1;shape=startState;fillColor=#000000;strokeColor=#ff0000;" vertex="1" parent="1">
          <mxGeometry x="130" y="30" width="30" height="30" as="geometry" />
        </mxCell>
        <mxCell id="SFdsLE2ytojVS_g6Q4z1-55" value="" style="edgeStyle=orthogonalEdgeStyle;rounded=0;orthogonalLoop=1;jettySize=auto;html=1;" edge="1" parent="1" source="SFdsLE2ytojVS_g6Q4z1-47" target="SFdsLE2ytojVS_g6Q4z1-49">
          <mxGeometry relative="1" as="geometry" />
        </mxCell>
        <mxCell id="SFdsLE2ytojVS_g6Q4z1-47" value="编辑面试基本信息&lt;br&gt;" style="rounded=0;whiteSpace=wrap;html=1;" vertex="1" parent="1">
          <mxGeometry x="87.5" y="95" width="115" height="45" as="geometry" />
        </mxCell>
        <mxCell id="SFdsLE2ytojVS_g6Q4z1-66" value="" style="edgeStyle=orthogonalEdgeStyle;rounded=0;orthogonalLoop=1;jettySize=auto;html=1;" edge="1" parent="1" source="SFdsLE2ytojVS_g6Q4z1-48" target="SFdsLE2ytojVS_g6Q4z1-53">
          <mxGeometry relative="1" as="geometry" />
        </mxCell>
        <mxCell id="SFdsLE2ytojVS_g6Q4z1-48" value="根据勾选和变更内容给应聘者、面试官、抄送人发通知" style="rounded=0;whiteSpace=wrap;html=1;" vertex="1" parent="1">
          <mxGeometry x="87.5" y="570" width="115" height="45" as="geometry" />
        </mxCell>
        <mxCell id="SFdsLE2ytojVS_g6Q4z1-56" value="" style="edgeStyle=orthogonalEdgeStyle;rounded=0;orthogonalLoop=1;jettySize=auto;html=1;" edge="1" parent="1" source="SFdsLE2ytojVS_g6Q4z1-49" target="SFdsLE2ytojVS_g6Q4z1-50">
          <mxGeometry relative="1" as="geometry" />
        </mxCell>
        <mxCell id="SFdsLE2ytojVS_g6Q4z1-58" value="已取消、已完成" style="edgeStyle=orthogonalEdgeStyle;rounded=0;orthogonalLoop=1;jettySize=auto;html=1;" edge="1" parent="1" source="SFdsLE2ytojVS_g6Q4z1-49" target="SFdsLE2ytojVS_g6Q4z1-57">
          <mxGeometry relative="1" as="geometry">
            <Array as="points">
              <mxPoint x="260" y="215" />
              <mxPoint x="260" y="215" />
            </Array>
          </mxGeometry>
        </mxCell>
        <mxCell id="SFdsLE2ytojVS_g6Q4z1-49" value="校验&lt;br&gt;面试安排状态" style="rhombus;whiteSpace=wrap;html=1;" vertex="1" parent="1">
          <mxGeometry x="86.25" y="180" width="117.5" height="70" as="geometry" />
        </mxCell>
        <mxCell id="SFdsLE2ytojVS_g6Q4z1-60" value="已取消、已完成" style="edgeStyle=orthogonalEdgeStyle;rounded=0;orthogonalLoop=1;jettySize=auto;html=1;" edge="1" parent="1" source="SFdsLE2ytojVS_g6Q4z1-50" target="SFdsLE2ytojVS_g6Q4z1-59">
          <mxGeometry relative="1" as="geometry" />
        </mxCell>
        <mxCell id="SFdsLE2ytojVS_g6Q4z1-61" value="" style="edgeStyle=orthogonalEdgeStyle;rounded=0;orthogonalLoop=1;jettySize=auto;html=1;" edge="1" parent="1" source="SFdsLE2ytojVS_g6Q4z1-50" target="SFdsLE2ytojVS_g6Q4z1-51">
          <mxGeometry relative="1" as="geometry" />
        </mxCell>
        <mxCell id="SFdsLE2ytojVS_g6Q4z1-50" value="校验安排下&lt;br&gt;面试状态" style="rhombus;whiteSpace=wrap;html=1;" vertex="1" parent="1">
          <mxGeometry x="86.25" y="280" width="117.5" height="70" as="geometry" />
        </mxCell>
        <mxCell id="SFdsLE2ytojVS_g6Q4z1-63" value="变更面试下有&lt;br&gt;新增评价" style="edgeStyle=orthogonalEdgeStyle;rounded=0;orthogonalLoop=1;jettySize=auto;html=1;" edge="1" parent="1" source="SFdsLE2ytojVS_g6Q4z1-51" target="SFdsLE2ytojVS_g6Q4z1-62">
          <mxGeometry relative="1" as="geometry" />
        </mxCell>
        <mxCell id="SFdsLE2ytojVS_g6Q4z1-64" value="" style="edgeStyle=orthogonalEdgeStyle;rounded=0;orthogonalLoop=1;jettySize=auto;html=1;" edge="1" parent="1" source="SFdsLE2ytojVS_g6Q4z1-51" target="SFdsLE2ytojVS_g6Q4z1-52">
          <mxGeometry relative="1" as="geometry" />
        </mxCell>
        <mxCell id="SFdsLE2ytojVS_g6Q4z1-51" value="校验面试评价" style="rhombus;whiteSpace=wrap;html=1;" vertex="1" parent="1">
          <mxGeometry x="86.25" y="380" width="117.5" height="70" as="geometry" />
        </mxCell>
        <mxCell id="SFdsLE2ytojVS_g6Q4z1-65" value="" style="edgeStyle=orthogonalEdgeStyle;rounded=0;orthogonalLoop=1;jettySize=auto;html=1;" edge="1" parent="1" source="SFdsLE2ytojVS_g6Q4z1-52" target="SFdsLE2ytojVS_g6Q4z1-48">
          <mxGeometry relative="1" as="geometry" />
        </mxCell>
        <mxCell id="SFdsLE2ytojVS_g6Q4z1-52" value="保存变更信息" style="rounded=0;whiteSpace=wrap;html=1;" vertex="1" parent="1">
          <mxGeometry x="87.5" y="490" width="115" height="45" as="geometry" />
        </mxCell>
        <mxCell id="SFdsLE2ytojVS_g6Q4z1-53" value="" style="ellipse;html=1;shape=endState;fillColor=#000000;strokeColor=#ff0000;" vertex="1" parent="1">
          <mxGeometry x="130" y="660" width="30" height="30" as="geometry" />
        </mxCell>
        <mxCell id="SFdsLE2ytojVS_g6Q4z1-71" style="edgeStyle=orthogonalEdgeStyle;rounded=0;orthogonalLoop=1;jettySize=auto;html=1;" edge="1" parent="1" source="SFdsLE2ytojVS_g6Q4z1-57" target="SFdsLE2ytojVS_g6Q4z1-67">
          <mxGeometry relative="1" as="geometry" />
        </mxCell>
        <mxCell id="SFdsLE2ytojVS_g6Q4z1-57" value="提示：修改失败，面试安排状态已改变" style="rounded=0;whiteSpace=wrap;html=1;" vertex="1" parent="1">
          <mxGeometry x="320" y="192.5" width="115" height="45" as="geometry" />
        </mxCell>
        <mxCell id="SFdsLE2ytojVS_g6Q4z1-69" style="edgeStyle=orthogonalEdgeStyle;rounded=0;orthogonalLoop=1;jettySize=auto;html=1;" edge="1" parent="1" source="SFdsLE2ytojVS_g6Q4z1-59" target="SFdsLE2ytojVS_g6Q4z1-67">
          <mxGeometry relative="1" as="geometry" />
        </mxCell>
        <mxCell id="SFdsLE2ytojVS_g6Q4z1-59" value="提示：修改失败，面试状态已改变" style="rounded=0;whiteSpace=wrap;html=1;" vertex="1" parent="1">
          <mxGeometry x="320" y="292.5" width="115" height="45" as="geometry" />
        </mxCell>
        <mxCell id="SFdsLE2ytojVS_g6Q4z1-68" value="" style="edgeStyle=orthogonalEdgeStyle;rounded=0;orthogonalLoop=1;jettySize=auto;html=1;" edge="1" parent="1" source="SFdsLE2ytojVS_g6Q4z1-62" target="SFdsLE2ytojVS_g6Q4z1-67">
          <mxGeometry relative="1" as="geometry" />
        </mxCell>
        <mxCell id="SFdsLE2ytojVS_g6Q4z1-62" value="提示：修改失败，面试官已作出评价" style="rounded=0;whiteSpace=wrap;html=1;" vertex="1" parent="1">
          <mxGeometry x="320" y="392.5" width="115" height="45" as="geometry" />
        </mxCell>
        <mxCell id="SFdsLE2ytojVS_g6Q4z1-67" value="" style="ellipse;html=1;shape=endState;fillColor=#000000;strokeColor=#ff0000;" vertex="1" parent="1">
          <mxGeometry x="362.5" y="520" width="30" height="30" as="geometry" />
        </mxCell>
        <mxCell id="SFdsLE2ytojVS_g6Q4z1-93" value="" style="edgeStyle=orthogonalEdgeStyle;rounded=0;orthogonalLoop=1;jettySize=auto;html=1;" edge="1" parent="1" source="SFdsLE2ytojVS_g6Q4z1-72" target="SFdsLE2ytojVS_g6Q4z1-74">
          <mxGeometry relative="1" as="geometry" />
        </mxCell>
        <mxCell id="SFdsLE2ytojVS_g6Q4z1-72" value="" style="ellipse;html=1;shape=startState;fillColor=#000000;strokeColor=#ff0000;" vertex="1" parent="1">
          <mxGeometry x="721.25" y="40" width="30" height="30" as="geometry" />
        </mxCell>
        <mxCell id="SFdsLE2ytojVS_g6Q4z1-94" value="" style="edgeStyle=orthogonalEdgeStyle;rounded=0;orthogonalLoop=1;jettySize=auto;html=1;" edge="1" parent="1" source="SFdsLE2ytojVS_g6Q4z1-74" target="SFdsLE2ytojVS_g6Q4z1-77">
          <mxGeometry relative="1" as="geometry" />
        </mxCell>
        <mxCell id="SFdsLE2ytojVS_g6Q4z1-74" value="调整面试官" style="rounded=0;whiteSpace=wrap;html=1;" vertex="1" parent="1">
          <mxGeometry x="678.75" y="110" width="115" height="45" as="geometry" />
        </mxCell>
        <mxCell id="SFdsLE2ytojVS_g6Q4z1-75" value="" style="edgeStyle=orthogonalEdgeStyle;rounded=0;orthogonalLoop=1;jettySize=auto;html=1;" edge="1" parent="1" source="SFdsLE2ytojVS_g6Q4z1-77" target="SFdsLE2ytojVS_g6Q4z1-80">
          <mxGeometry relative="1" as="geometry" />
        </mxCell>
        <mxCell id="SFdsLE2ytojVS_g6Q4z1-76" value="已取消、已完成" style="edgeStyle=orthogonalEdgeStyle;rounded=0;orthogonalLoop=1;jettySize=auto;html=1;" edge="1" parent="1" source="SFdsLE2ytojVS_g6Q4z1-77" target="SFdsLE2ytojVS_g6Q4z1-83">
          <mxGeometry relative="1" as="geometry">
            <Array as="points">
              <mxPoint x="851.25" y="227.5" />
              <mxPoint x="851.25" y="227.5" />
            </Array>
          </mxGeometry>
        </mxCell>
        <mxCell id="SFdsLE2ytojVS_g6Q4z1-77" value="校验&lt;br&gt;面试安排状态" style="rhombus;whiteSpace=wrap;html=1;" vertex="1" parent="1">
          <mxGeometry x="677.5" y="192.5" width="117.5" height="70" as="geometry" />
        </mxCell>
        <mxCell id="SFdsLE2ytojVS_g6Q4z1-78" value="已取消、已完成" style="edgeStyle=orthogonalEdgeStyle;rounded=0;orthogonalLoop=1;jettySize=auto;html=1;" edge="1" parent="1" source="SFdsLE2ytojVS_g6Q4z1-80" target="SFdsLE2ytojVS_g6Q4z1-84">
          <mxGeometry relative="1" as="geometry" />
        </mxCell>
        <mxCell id="SFdsLE2ytojVS_g6Q4z1-79" value="" style="edgeStyle=orthogonalEdgeStyle;rounded=0;orthogonalLoop=1;jettySize=auto;html=1;" edge="1" parent="1" source="SFdsLE2ytojVS_g6Q4z1-80" target="SFdsLE2ytojVS_g6Q4z1-82">
          <mxGeometry relative="1" as="geometry" />
        </mxCell>
        <mxCell id="SFdsLE2ytojVS_g6Q4z1-80" value="校验安排下&lt;br&gt;面试状态" style="rhombus;whiteSpace=wrap;html=1;" vertex="1" parent="1">
          <mxGeometry x="677.5" y="292.5" width="117.5" height="70" as="geometry" />
        </mxCell>
        <mxCell id="SFdsLE2ytojVS_g6Q4z1-81" value="变更面试下有&lt;br&gt;新增评价" style="edgeStyle=orthogonalEdgeStyle;rounded=0;orthogonalLoop=1;jettySize=auto;html=1;" edge="1" parent="1" source="SFdsLE2ytojVS_g6Q4z1-82" target="SFdsLE2ytojVS_g6Q4z1-85">
          <mxGeometry relative="1" as="geometry" />
        </mxCell>
        <mxCell id="SFdsLE2ytojVS_g6Q4z1-103" value="" style="edgeStyle=orthogonalEdgeStyle;rounded=0;orthogonalLoop=1;jettySize=auto;html=1;" edge="1" parent="1" source="SFdsLE2ytojVS_g6Q4z1-82" target="SFdsLE2ytojVS_g6Q4z1-95">
          <mxGeometry relative="1" as="geometry" />
        </mxCell>
        <mxCell id="SFdsLE2ytojVS_g6Q4z1-82" value="校验面试评价" style="rhombus;whiteSpace=wrap;html=1;" vertex="1" parent="1">
          <mxGeometry x="677.5" y="392.5" width="117.5" height="70" as="geometry" />
        </mxCell>
        <mxCell id="SFdsLE2ytojVS_g6Q4z1-89" style="edgeStyle=orthogonalEdgeStyle;rounded=0;orthogonalLoop=1;jettySize=auto;html=1;entryX=0.5;entryY=0;entryDx=0;entryDy=0;" edge="1" parent="1" source="SFdsLE2ytojVS_g6Q4z1-83" target="SFdsLE2ytojVS_g6Q4z1-86">
          <mxGeometry relative="1" as="geometry" />
        </mxCell>
        <mxCell id="SFdsLE2ytojVS_g6Q4z1-83" value="提示：修改失败，面试安排状态已改变" style="rounded=0;whiteSpace=wrap;html=1;" vertex="1" parent="1">
          <mxGeometry x="911.25" y="205" width="115" height="45" as="geometry" />
        </mxCell>
        <mxCell id="SFdsLE2ytojVS_g6Q4z1-88" style="edgeStyle=orthogonalEdgeStyle;rounded=0;orthogonalLoop=1;jettySize=auto;html=1;" edge="1" parent="1" source="SFdsLE2ytojVS_g6Q4z1-84" target="SFdsLE2ytojVS_g6Q4z1-86">
          <mxGeometry relative="1" as="geometry" />
        </mxCell>
        <mxCell id="SFdsLE2ytojVS_g6Q4z1-84" value="提示：修改失败，面试状态已改变" style="rounded=0;whiteSpace=wrap;html=1;" vertex="1" parent="1">
          <mxGeometry x="911.25" y="305" width="115" height="45" as="geometry" />
        </mxCell>
        <mxCell id="SFdsLE2ytojVS_g6Q4z1-87" value="" style="edgeStyle=orthogonalEdgeStyle;rounded=0;orthogonalLoop=1;jettySize=auto;html=1;" edge="1" parent="1" source="SFdsLE2ytojVS_g6Q4z1-85" target="SFdsLE2ytojVS_g6Q4z1-86">
          <mxGeometry relative="1" as="geometry" />
        </mxCell>
        <mxCell id="SFdsLE2ytojVS_g6Q4z1-85" value="提示：修改失败，面试官已作出评价" style="rounded=0;whiteSpace=wrap;html=1;" vertex="1" parent="1">
          <mxGeometry x="911.25" y="405" width="115" height="45" as="geometry" />
        </mxCell>
        <mxCell id="SFdsLE2ytojVS_g6Q4z1-86" value="" style="ellipse;html=1;shape=endState;fillColor=#000000;strokeColor=#ff0000;" vertex="1" parent="1">
          <mxGeometry x="953.75" y="505" width="30" height="30" as="geometry" />
        </mxCell>
        <mxCell id="SFdsLE2ytojVS_g6Q4z1-104" value="" style="edgeStyle=orthogonalEdgeStyle;rounded=0;orthogonalLoop=1;jettySize=auto;html=1;" edge="1" parent="1" source="SFdsLE2ytojVS_g6Q4z1-95" target="SFdsLE2ytojVS_g6Q4z1-96">
          <mxGeometry relative="1" as="geometry" />
        </mxCell>
        <mxCell id="SFdsLE2ytojVS_g6Q4z1-95" value="保存调整的面试官" style="rounded=0;whiteSpace=wrap;html=1;" vertex="1" parent="1">
          <mxGeometry x="677.5" y="505" width="115" height="45" as="geometry" />
        </mxCell>
        <mxCell id="SFdsLE2ytojVS_g6Q4z1-109" style="edgeStyle=orthogonalEdgeStyle;rounded=0;orthogonalLoop=1;jettySize=auto;html=1;" edge="1" parent="1" source="SFdsLE2ytojVS_g6Q4z1-96" target="SFdsLE2ytojVS_g6Q4z1-108">
          <mxGeometry relative="1" as="geometry">
            <Array as="points">
              <mxPoint x="838" y="625" />
            </Array>
          </mxGeometry>
        </mxCell>
        <mxCell id="SFdsLE2ytojVS_g6Q4z1-110" value="否" style="edgeLabel;html=1;align=center;verticalAlign=middle;resizable=0;points=[];" vertex="1" connectable="0" parent="SFdsLE2ytojVS_g6Q4z1-109">
          <mxGeometry x="0.0282" y="-3" relative="1" as="geometry">
            <mxPoint as="offset" />
          </mxGeometry>
        </mxCell>
        <mxCell id="SFdsLE2ytojVS_g6Q4z1-111" style="edgeStyle=orthogonalEdgeStyle;rounded=0;orthogonalLoop=1;jettySize=auto;html=1;entryX=0.43;entryY=-0.107;entryDx=0;entryDy=0;entryPerimeter=0;" edge="1" parent="1" source="SFdsLE2ytojVS_g6Q4z1-96" target="SFdsLE2ytojVS_g6Q4z1-98">
          <mxGeometry relative="1" as="geometry">
            <Array as="points">
              <mxPoint x="613" y="625" />
            </Array>
          </mxGeometry>
        </mxCell>
        <mxCell id="SFdsLE2ytojVS_g6Q4z1-112" value="是" style="edgeLabel;html=1;align=center;verticalAlign=middle;resizable=0;points=[];" vertex="1" connectable="0" parent="SFdsLE2ytojVS_g6Q4z1-111">
          <mxGeometry x="0.2741" y="1" relative="1" as="geometry">
            <mxPoint as="offset" />
          </mxGeometry>
        </mxCell>
        <mxCell id="SFdsLE2ytojVS_g6Q4z1-96" value="勾选通知调整&lt;br&gt;的面试官" style="rhombus;whiteSpace=wrap;html=1;" vertex="1" parent="1">
          <mxGeometry x="676.25" y="590" width="117.5" height="70" as="geometry" />
        </mxCell>
        <mxCell id="SFdsLE2ytojVS_g6Q4z1-115" style="edgeStyle=orthogonalEdgeStyle;rounded=0;orthogonalLoop=1;jettySize=auto;html=1;entryX=0.5;entryY=0;entryDx=0;entryDy=0;" edge="1" parent="1" source="SFdsLE2ytojVS_g6Q4z1-98" target="SFdsLE2ytojVS_g6Q4z1-106">
          <mxGeometry relative="1" as="geometry">
            <Array as="points">
              <mxPoint x="621" y="780" />
              <mxPoint x="736" y="780" />
            </Array>
          </mxGeometry>
        </mxCell>
        <mxCell id="SFdsLE2ytojVS_g6Q4z1-98" value="给面试官发通知" style="rounded=0;whiteSpace=wrap;html=1;" vertex="1" parent="1">
          <mxGeometry x="563.75" y="710" width="115" height="45" as="geometry" />
        </mxCell>
        <mxCell id="SFdsLE2ytojVS_g6Q4z1-106" value="" style="ellipse;html=1;shape=endState;fillColor=#000000;strokeColor=#ff0000;" vertex="1" parent="1">
          <mxGeometry x="721.25" y="840" width="30" height="30" as="geometry" />
        </mxCell>
        <mxCell id="SFdsLE2ytojVS_g6Q4z1-114" style="edgeStyle=orthogonalEdgeStyle;rounded=0;orthogonalLoop=1;jettySize=auto;html=1;" edge="1" parent="1" source="SFdsLE2ytojVS_g6Q4z1-108" target="SFdsLE2ytojVS_g6Q4z1-106">
          <mxGeometry relative="1" as="geometry">
            <Array as="points">
              <mxPoint x="838" y="780" />
              <mxPoint x="736" y="780" />
            </Array>
          </mxGeometry>
        </mxCell>
        <mxCell id="SFdsLE2ytojVS_g6Q4z1-108" value="不发送通知" style="rounded=0;whiteSpace=wrap;html=1;" vertex="1" parent="1">
          <mxGeometry x="780" y="710" width="115" height="45" as="geometry" />
        </mxCell>
        <mxCell id="SFdsLE2ytojVS_g6Q4z1-125" value="" style="edgeStyle=orthogonalEdgeStyle;rounded=0;orthogonalLoop=1;jettySize=auto;html=1;" edge="1" parent="1" source="SFdsLE2ytojVS_g6Q4z1-116" target="SFdsLE2ytojVS_g6Q4z1-118">
          <mxGeometry relative="1" as="geometry" />
        </mxCell>
        <mxCell id="SFdsLE2ytojVS_g6Q4z1-116" value="" style="ellipse;html=1;shape=startState;fillColor=#000000;strokeColor=#ff0000;" vertex="1" parent="1">
          <mxGeometry x="140" y="900" width="30" height="30" as="geometry" />
        </mxCell>
        <mxCell id="SFdsLE2ytojVS_g6Q4z1-126" value="" style="edgeStyle=orthogonalEdgeStyle;rounded=0;orthogonalLoop=1;jettySize=auto;html=1;" edge="1" parent="1" source="SFdsLE2ytojVS_g6Q4z1-118" target="SFdsLE2ytojVS_g6Q4z1-122">
          <mxGeometry relative="1" as="geometry" />
        </mxCell>
        <mxCell id="SFdsLE2ytojVS_g6Q4z1-118" value="非关键信息变更、&lt;br&gt;面试地点变更" style="rounded=0;whiteSpace=wrap;html=1;" vertex="1" parent="1">
          <mxGeometry x="97.5" y="970" width="115" height="45" as="geometry" />
        </mxCell>
        <mxCell id="SFdsLE2ytojVS_g6Q4z1-128" value="" style="edgeStyle=orthogonalEdgeStyle;rounded=0;orthogonalLoop=1;jettySize=auto;html=1;" edge="1" parent="1" source="SFdsLE2ytojVS_g6Q4z1-119" target="SFdsLE2ytojVS_g6Q4z1-120">
          <mxGeometry relative="1" as="geometry" />
        </mxCell>
        <mxCell id="SFdsLE2ytojVS_g6Q4z1-119" value="获取面试安排下的全部应聘者" style="rounded=0;whiteSpace=wrap;html=1;" vertex="1" parent="1">
          <mxGeometry x="97.5" y="1160" width="115" height="45" as="geometry" />
        </mxCell>
        <mxCell id="SFdsLE2ytojVS_g6Q4z1-129" value="未完成" style="edgeStyle=orthogonalEdgeStyle;rounded=0;orthogonalLoop=1;jettySize=auto;html=1;" edge="1" parent="1" source="SFdsLE2ytojVS_g6Q4z1-120" target="SFdsLE2ytojVS_g6Q4z1-121">
          <mxGeometry relative="1" as="geometry" />
        </mxCell>
        <mxCell id="SFdsLE2ytojVS_g6Q4z1-136" value="已取消、已完成" style="edgeStyle=orthogonalEdgeStyle;rounded=0;orthogonalLoop=1;jettySize=auto;html=1;" edge="1" parent="1" source="SFdsLE2ytojVS_g6Q4z1-120" target="SFdsLE2ytojVS_g6Q4z1-133">
          <mxGeometry relative="1" as="geometry" />
        </mxCell>
        <mxCell id="SFdsLE2ytojVS_g6Q4z1-120" value="应聘者面试状态" style="rhombus;whiteSpace=wrap;html=1;" vertex="1" parent="1">
          <mxGeometry x="96.25" y="1230" width="117.5" height="70" as="geometry" />
        </mxCell>
        <mxCell id="SFdsLE2ytojVS_g6Q4z1-131" value="" style="edgeStyle=orthogonalEdgeStyle;rounded=0;orthogonalLoop=1;jettySize=auto;html=1;" edge="1" parent="1" source="SFdsLE2ytojVS_g6Q4z1-121" target="SFdsLE2ytojVS_g6Q4z1-123">
          <mxGeometry relative="1" as="geometry" />
        </mxCell>
        <mxCell id="SFdsLE2ytojVS_g6Q4z1-121" value="给应聘者发送邮件、短信" style="rounded=0;whiteSpace=wrap;html=1;" vertex="1" parent="1">
          <mxGeometry x="97.5" y="1350" width="115" height="45" as="geometry" />
        </mxCell>
        <mxCell id="SFdsLE2ytojVS_g6Q4z1-127" value="是" style="edgeStyle=orthogonalEdgeStyle;rounded=0;orthogonalLoop=1;jettySize=auto;html=1;" edge="1" parent="1" source="SFdsLE2ytojVS_g6Q4z1-122" target="SFdsLE2ytojVS_g6Q4z1-119">
          <mxGeometry relative="1" as="geometry" />
        </mxCell>
        <mxCell id="SFdsLE2ytojVS_g6Q4z1-134" style="edgeStyle=orthogonalEdgeStyle;rounded=0;orthogonalLoop=1;jettySize=auto;html=1;" edge="1" parent="1" source="SFdsLE2ytojVS_g6Q4z1-122" target="SFdsLE2ytojVS_g6Q4z1-133">
          <mxGeometry relative="1" as="geometry" />
        </mxCell>
        <mxCell id="SFdsLE2ytojVS_g6Q4z1-135" value="未勾选" style="edgeLabel;html=1;align=center;verticalAlign=middle;resizable=0;points=[];" vertex="1" connectable="0" parent="SFdsLE2ytojVS_g6Q4z1-134">
          <mxGeometry x="-0.3029" y="1" relative="1" as="geometry">
            <mxPoint as="offset" />
          </mxGeometry>
        </mxCell>
        <mxCell id="SFdsLE2ytojVS_g6Q4z1-122" value="勾选发送邮件、&lt;br&gt;短信通知" style="rhombus;whiteSpace=wrap;html=1;" vertex="1" parent="1">
          <mxGeometry x="96.25" y="1050" width="117.5" height="70" as="geometry" />
        </mxCell>
        <mxCell id="SFdsLE2ytojVS_g6Q4z1-132" value="" style="edgeStyle=orthogonalEdgeStyle;rounded=0;orthogonalLoop=1;jettySize=auto;html=1;" edge="1" parent="1" source="SFdsLE2ytojVS_g6Q4z1-123" target="SFdsLE2ytojVS_g6Q4z1-124">
          <mxGeometry relative="1" as="geometry" />
        </mxCell>
        <mxCell id="SFdsLE2ytojVS_g6Q4z1-123" value="清空应聘者面试答复状态（未答复）" style="rounded=0;whiteSpace=wrap;html=1;" vertex="1" parent="1">
          <mxGeometry x="97.5" y="1430" width="115" height="45" as="geometry" />
        </mxCell>
        <mxCell id="SFdsLE2ytojVS_g6Q4z1-124" value="" style="ellipse;html=1;shape=endState;fillColor=#000000;strokeColor=#ff0000;" vertex="1" parent="1">
          <mxGeometry x="140" y="1520" width="30" height="30" as="geometry" />
        </mxCell>
        <mxCell id="SFdsLE2ytojVS_g6Q4z1-140" value="" style="edgeStyle=orthogonalEdgeStyle;rounded=0;orthogonalLoop=1;jettySize=auto;html=1;" edge="1" parent="1" source="SFdsLE2ytojVS_g6Q4z1-133" target="SFdsLE2ytojVS_g6Q4z1-137">
          <mxGeometry relative="1" as="geometry" />
        </mxCell>
        <mxCell id="SFdsLE2ytojVS_g6Q4z1-133" value="不发送通知" style="rounded=0;whiteSpace=wrap;html=1;" vertex="1" parent="1">
          <mxGeometry x="330" y="1242.5" width="115" height="45" as="geometry" />
        </mxCell>
        <mxCell id="SFdsLE2ytojVS_g6Q4z1-137" value="" style="ellipse;html=1;shape=endState;fillColor=#000000;strokeColor=#ff0000;" vertex="1" parent="1">
          <mxGeometry x="372.5" y="1350" width="30" height="30" as="geometry" />
        </mxCell>
        <mxCell id="SFdsLE2ytojVS_g6Q4z1-157" value="" style="edgeStyle=orthogonalEdgeStyle;rounded=0;orthogonalLoop=1;jettySize=auto;html=1;" edge="1" parent="1" source="SFdsLE2ytojVS_g6Q4z1-141" target="SFdsLE2ytojVS_g6Q4z1-143">
          <mxGeometry relative="1" as="geometry" />
        </mxCell>
        <mxCell id="SFdsLE2ytojVS_g6Q4z1-141" value="" style="ellipse;html=1;shape=startState;fillColor=#000000;strokeColor=#ff0000;" vertex="1" parent="1">
          <mxGeometry x="606.25" y="890" width="30" height="30" as="geometry" />
        </mxCell>
        <mxCell id="SFdsLE2ytojVS_g6Q4z1-158" value="" style="edgeStyle=orthogonalEdgeStyle;rounded=0;orthogonalLoop=1;jettySize=auto;html=1;" edge="1" parent="1" source="SFdsLE2ytojVS_g6Q4z1-143" target="SFdsLE2ytojVS_g6Q4z1-144">
          <mxGeometry relative="1" as="geometry" />
        </mxCell>
        <mxCell id="SFdsLE2ytojVS_g6Q4z1-143" value="面试时间变更" style="rounded=0;whiteSpace=wrap;html=1;" vertex="1" parent="1">
          <mxGeometry x="563.75" y="960" width="115" height="45" as="geometry" />
        </mxCell>
        <mxCell id="SFdsLE2ytojVS_g6Q4z1-159" value="勾选" style="edgeStyle=orthogonalEdgeStyle;rounded=0;orthogonalLoop=1;jettySize=auto;html=1;" edge="1" parent="1" source="SFdsLE2ytojVS_g6Q4z1-144" target="SFdsLE2ytojVS_g6Q4z1-145">
          <mxGeometry relative="1" as="geometry" />
        </mxCell>
        <mxCell id="SFdsLE2ytojVS_g6Q4z1-161" style="edgeStyle=orthogonalEdgeStyle;rounded=0;orthogonalLoop=1;jettySize=auto;html=1;" edge="1" parent="1" source="SFdsLE2ytojVS_g6Q4z1-144" target="SFdsLE2ytojVS_g6Q4z1-155">
          <mxGeometry relative="1" as="geometry" />
        </mxCell>
        <mxCell id="SFdsLE2ytojVS_g6Q4z1-162" value="未勾选" style="edgeLabel;html=1;align=center;verticalAlign=middle;resizable=0;points=[];" vertex="1" connectable="0" parent="SFdsLE2ytojVS_g6Q4z1-161">
          <mxGeometry x="-0.2469" y="1" relative="1" as="geometry">
            <mxPoint as="offset" />
          </mxGeometry>
        </mxCell>
        <mxCell id="SFdsLE2ytojVS_g6Q4z1-144" value="勾选发送邮件、&lt;br&gt;短信通知" style="rhombus;whiteSpace=wrap;html=1;" vertex="1" parent="1">
          <mxGeometry x="562.5" y="1050" width="117.5" height="70" as="geometry" />
        </mxCell>
        <mxCell id="SFdsLE2ytojVS_g6Q4z1-160" value="" style="edgeStyle=orthogonalEdgeStyle;rounded=0;orthogonalLoop=1;jettySize=auto;html=1;" edge="1" parent="1" source="SFdsLE2ytojVS_g6Q4z1-145" target="SFdsLE2ytojVS_g6Q4z1-148">
          <mxGeometry relative="1" as="geometry" />
        </mxCell>
        <mxCell id="SFdsLE2ytojVS_g6Q4z1-145" value="获取面试时间变更的应聘者" style="rounded=0;whiteSpace=wrap;html=1;" vertex="1" parent="1">
          <mxGeometry x="563.75" y="1160" width="115" height="45" as="geometry" />
        </mxCell>
        <mxCell id="SFdsLE2ytojVS_g6Q4z1-146" value="未完成" style="edgeStyle=orthogonalEdgeStyle;rounded=0;orthogonalLoop=1;jettySize=auto;html=1;" edge="1" parent="1" source="SFdsLE2ytojVS_g6Q4z1-148" target="SFdsLE2ytojVS_g6Q4z1-150">
          <mxGeometry relative="1" as="geometry" />
        </mxCell>
        <mxCell id="SFdsLE2ytojVS_g6Q4z1-147" value="已取消、已完成" style="edgeStyle=orthogonalEdgeStyle;rounded=0;orthogonalLoop=1;jettySize=auto;html=1;" edge="1" parent="1" source="SFdsLE2ytojVS_g6Q4z1-148" target="SFdsLE2ytojVS_g6Q4z1-155">
          <mxGeometry relative="1" as="geometry" />
        </mxCell>
        <mxCell id="SFdsLE2ytojVS_g6Q4z1-148" value="应聘者面试状态" style="rhombus;whiteSpace=wrap;html=1;" vertex="1" parent="1">
          <mxGeometry x="561.88" y="1242.5" width="117.5" height="70" as="geometry" />
        </mxCell>
        <mxCell id="SFdsLE2ytojVS_g6Q4z1-149" value="" style="edgeStyle=orthogonalEdgeStyle;rounded=0;orthogonalLoop=1;jettySize=auto;html=1;" edge="1" parent="1" source="SFdsLE2ytojVS_g6Q4z1-150" target="SFdsLE2ytojVS_g6Q4z1-152">
          <mxGeometry relative="1" as="geometry" />
        </mxCell>
        <mxCell id="SFdsLE2ytojVS_g6Q4z1-150" value="给应聘者发送邮件、短信" style="rounded=0;whiteSpace=wrap;html=1;" vertex="1" parent="1">
          <mxGeometry x="563.13" y="1362.5" width="115" height="45" as="geometry" />
        </mxCell>
        <mxCell id="SFdsLE2ytojVS_g6Q4z1-151" value="" style="edgeStyle=orthogonalEdgeStyle;rounded=0;orthogonalLoop=1;jettySize=auto;html=1;" edge="1" parent="1" source="SFdsLE2ytojVS_g6Q4z1-152" target="SFdsLE2ytojVS_g6Q4z1-153">
          <mxGeometry relative="1" as="geometry" />
        </mxCell>
        <mxCell id="SFdsLE2ytojVS_g6Q4z1-152" value="清空应聘者面试答复状态（未答复）" style="rounded=0;whiteSpace=wrap;html=1;" vertex="1" parent="1">
          <mxGeometry x="563.13" y="1442.5" width="115" height="45" as="geometry" />
        </mxCell>
        <mxCell id="SFdsLE2ytojVS_g6Q4z1-153" value="" style="ellipse;html=1;shape=endState;fillColor=#000000;strokeColor=#ff0000;" vertex="1" parent="1">
          <mxGeometry x="605.63" y="1532.5" width="30" height="30" as="geometry" />
        </mxCell>
        <mxCell id="SFdsLE2ytojVS_g6Q4z1-154" value="" style="edgeStyle=orthogonalEdgeStyle;rounded=0;orthogonalLoop=1;jettySize=auto;html=1;" edge="1" parent="1" source="SFdsLE2ytojVS_g6Q4z1-155" target="SFdsLE2ytojVS_g6Q4z1-156">
          <mxGeometry relative="1" as="geometry" />
        </mxCell>
        <mxCell id="SFdsLE2ytojVS_g6Q4z1-155" value="不发送通知" style="rounded=0;whiteSpace=wrap;html=1;" vertex="1" parent="1">
          <mxGeometry x="795.63" y="1255" width="115" height="45" as="geometry" />
        </mxCell>
        <mxCell id="SFdsLE2ytojVS_g6Q4z1-156" value="" style="ellipse;html=1;shape=endState;fillColor=#000000;strokeColor=#ff0000;" vertex="1" parent="1">
          <mxGeometry x="838.13" y="1362.5" width="30" height="30" as="geometry" />
        </mxCell>
        <mxCell id="SFdsLE2ytojVS_g6Q4z1-163" value="1、分组时间调整&lt;br&gt;2、应聘者调换组" style="text;align=center;verticalAlign=middle;rounded=0;fillColor=#dae8fc;whiteSpace=wrap;html=1;" vertex="1" parent="1">
          <mxGeometry x="685.63" y="1155" width="110" height="50" as="geometry" />
        </mxCell>
        <mxCell id="SFdsLE2ytojVS_g6Q4z1-173" value="" style="edgeStyle=orthogonalEdgeStyle;rounded=0;orthogonalLoop=1;jettySize=auto;html=1;fontColor=#000000;" edge="1" parent="1" source="SFdsLE2ytojVS_g6Q4z1-164" target="SFdsLE2ytojVS_g6Q4z1-166">
          <mxGeometry relative="1" as="geometry" />
        </mxCell>
        <mxCell id="SFdsLE2ytojVS_g6Q4z1-164" value="" style="ellipse;html=1;shape=startState;fillColor=#000000;strokeColor=#ff0000;fontColor=#000000;" vertex="1" parent="1">
          <mxGeometry x="140" y="1630" width="30" height="30" as="geometry" />
        </mxCell>
        <mxCell id="SFdsLE2ytojVS_g6Q4z1-174" value="" style="edgeStyle=orthogonalEdgeStyle;rounded=0;orthogonalLoop=1;jettySize=auto;html=1;fontColor=#000000;" edge="1" parent="1" source="SFdsLE2ytojVS_g6Q4z1-166" target="SFdsLE2ytojVS_g6Q4z1-167">
          <mxGeometry relative="1" as="geometry" />
        </mxCell>
        <mxCell id="SFdsLE2ytojVS_g6Q4z1-166" value="非关键信息变更" style="rounded=0;whiteSpace=wrap;html=1;" vertex="1" parent="1">
          <mxGeometry x="97.5" y="1700" width="115" height="45" as="geometry" />
        </mxCell>
        <mxCell id="SFdsLE2ytojVS_g6Q4z1-175" value="勾选" style="edgeStyle=orthogonalEdgeStyle;rounded=0;orthogonalLoop=1;jettySize=auto;html=1;fontColor=#000000;" edge="1" parent="1" source="SFdsLE2ytojVS_g6Q4z1-167" target="SFdsLE2ytojVS_g6Q4z1-168">
          <mxGeometry relative="1" as="geometry" />
        </mxCell>
        <mxCell id="SFdsLE2ytojVS_g6Q4z1-180" style="edgeStyle=orthogonalEdgeStyle;rounded=0;orthogonalLoop=1;jettySize=auto;html=1;fontColor=#000000;" edge="1" parent="1" source="SFdsLE2ytojVS_g6Q4z1-167" target="SFdsLE2ytojVS_g6Q4z1-171">
          <mxGeometry relative="1" as="geometry" />
        </mxCell>
        <mxCell id="SFdsLE2ytojVS_g6Q4z1-181" value="未勾选" style="edgeLabel;html=1;align=center;verticalAlign=middle;resizable=0;points=[];fontColor=#000000;" vertex="1" connectable="0" parent="SFdsLE2ytojVS_g6Q4z1-180">
          <mxGeometry x="-0.2347" y="-2" relative="1" as="geometry">
            <mxPoint as="offset" />
          </mxGeometry>
        </mxCell>
        <mxCell id="SFdsLE2ytojVS_g6Q4z1-167" value="勾选给面试官发邮件、短信通知" style="rhombus;whiteSpace=wrap;html=1;" vertex="1" parent="1">
          <mxGeometry x="96.25" y="1780" width="117.5" height="70" as="geometry" />
        </mxCell>
        <mxCell id="SFdsLE2ytojVS_g6Q4z1-176" value="" style="edgeStyle=orthogonalEdgeStyle;rounded=0;orthogonalLoop=1;jettySize=auto;html=1;fontColor=#000000;" edge="1" parent="1" source="SFdsLE2ytojVS_g6Q4z1-168" target="SFdsLE2ytojVS_g6Q4z1-169">
          <mxGeometry relative="1" as="geometry" />
        </mxCell>
        <mxCell id="SFdsLE2ytojVS_g6Q4z1-168" value="获取面试安排下所有面试官" style="rounded=0;whiteSpace=wrap;html=1;" vertex="1" parent="1">
          <mxGeometry x="97.5" y="1890" width="115" height="45" as="geometry" />
        </mxCell>
        <mxCell id="SFdsLE2ytojVS_g6Q4z1-177" value="是" style="edgeStyle=orthogonalEdgeStyle;rounded=0;orthogonalLoop=1;jettySize=auto;html=1;fontColor=#000000;" edge="1" parent="1" source="SFdsLE2ytojVS_g6Q4z1-169" target="SFdsLE2ytojVS_g6Q4z1-170">
          <mxGeometry relative="1" as="geometry" />
        </mxCell>
        <mxCell id="SFdsLE2ytojVS_g6Q4z1-179" value="否" style="edgeStyle=orthogonalEdgeStyle;rounded=0;orthogonalLoop=1;jettySize=auto;html=1;entryX=0;entryY=0.5;entryDx=0;entryDy=0;fontColor=#000000;" edge="1" parent="1" source="SFdsLE2ytojVS_g6Q4z1-169" target="SFdsLE2ytojVS_g6Q4z1-171">
          <mxGeometry relative="1" as="geometry" />
        </mxCell>
        <mxCell id="SFdsLE2ytojVS_g6Q4z1-169" value="面试官下是否存在&lt;br&gt;有效日程" style="rhombus;whiteSpace=wrap;html=1;" vertex="1" parent="1">
          <mxGeometry x="96.25" y="1967.5" width="117.5" height="70" as="geometry" />
        </mxCell>
        <mxCell id="SFdsLE2ytojVS_g6Q4z1-182" value="" style="edgeStyle=orthogonalEdgeStyle;rounded=0;orthogonalLoop=1;jettySize=auto;html=1;fontColor=#000000;" edge="1" parent="1" source="SFdsLE2ytojVS_g6Q4z1-170" target="SFdsLE2ytojVS_g6Q4z1-172">
          <mxGeometry relative="1" as="geometry" />
        </mxCell>
        <mxCell id="SFdsLE2ytojVS_g6Q4z1-170" value="给面试官发送邮件、短信通知" style="rounded=0;whiteSpace=wrap;html=1;" vertex="1" parent="1">
          <mxGeometry x="97.5" y="2090" width="115" height="45" as="geometry" />
        </mxCell>
        <mxCell id="SFdsLE2ytojVS_g6Q4z1-184" value="" style="edgeStyle=orthogonalEdgeStyle;rounded=0;orthogonalLoop=1;jettySize=auto;html=1;fontColor=#000000;" edge="1" parent="1" source="SFdsLE2ytojVS_g6Q4z1-171" target="SFdsLE2ytojVS_g6Q4z1-183">
          <mxGeometry relative="1" as="geometry" />
        </mxCell>
        <mxCell id="SFdsLE2ytojVS_g6Q4z1-171" value="不发通知" style="rounded=0;whiteSpace=wrap;html=1;" vertex="1" parent="1">
          <mxGeometry x="340" y="1980" width="115" height="45" as="geometry" />
        </mxCell>
        <mxCell id="SFdsLE2ytojVS_g6Q4z1-172" value="" style="ellipse;html=1;shape=endState;fillColor=#000000;strokeColor=#ff0000;fontColor=#000000;" vertex="1" parent="1">
          <mxGeometry x="140" y="2190" width="30" height="30" as="geometry" />
        </mxCell>
        <mxCell id="SFdsLE2ytojVS_g6Q4z1-178" style="edgeStyle=orthogonalEdgeStyle;rounded=0;orthogonalLoop=1;jettySize=auto;html=1;exitX=0.5;exitY=1;exitDx=0;exitDy=0;fontColor=#000000;" edge="1" parent="1" source="SFdsLE2ytojVS_g6Q4z1-171" target="SFdsLE2ytojVS_g6Q4z1-171">
          <mxGeometry relative="1" as="geometry" />
        </mxCell>
        <mxCell id="SFdsLE2ytojVS_g6Q4z1-183" value="" style="ellipse;html=1;shape=endState;fillColor=#000000;strokeColor=#ff0000;fontColor=#000000;" vertex="1" parent="1">
          <mxGeometry x="382.5" y="2090" width="30" height="30" as="geometry" />
        </mxCell>
        <mxCell id="SFdsLE2ytojVS_g6Q4z1-185" value="" style="ellipse;html=1;shape=startState;fillColor=#000000;strokeColor=#ff0000;fontColor=#000000;" vertex="1" parent="1">
          <mxGeometry x="656" y="1630" width="30" height="30" as="geometry" />
        </mxCell>
        <mxCell id="SFdsLE2ytojVS_g6Q4z1-187" value="面试地点变更" style="rounded=0;whiteSpace=wrap;html=1;" vertex="1" parent="1">
          <mxGeometry x="613.5" y="1700" width="115" height="45" as="geometry" />
        </mxCell>
        <mxCell id="SFdsLE2ytojVS_g6Q4z1-188" value="勾选" style="edgeStyle=orthogonalEdgeStyle;rounded=0;orthogonalLoop=1;jettySize=auto;html=1;fontColor=#000000;" edge="1" parent="1" source="SFdsLE2ytojVS_g6Q4z1-191" target="SFdsLE2ytojVS_g6Q4z1-193">
          <mxGeometry relative="1" as="geometry" />
        </mxCell>
        <mxCell id="SFdsLE2ytojVS_g6Q4z1-189" style="edgeStyle=orthogonalEdgeStyle;rounded=0;orthogonalLoop=1;jettySize=auto;html=1;fontColor=#000000;" edge="1" parent="1" source="SFdsLE2ytojVS_g6Q4z1-191" target="SFdsLE2ytojVS_g6Q4z1-200">
          <mxGeometry relative="1" as="geometry" />
        </mxCell>
        <mxCell id="SFdsLE2ytojVS_g6Q4z1-190" value="未勾选" style="edgeLabel;html=1;align=center;verticalAlign=middle;resizable=0;points=[];fontColor=#000000;" vertex="1" connectable="0" parent="SFdsLE2ytojVS_g6Q4z1-189">
          <mxGeometry x="-0.2347" y="-2" relative="1" as="geometry">
            <mxPoint as="offset" />
          </mxGeometry>
        </mxCell>
        <mxCell id="SFdsLE2ytojVS_g6Q4z1-191" value="勾选给面试官发邮件、短信通知" style="rhombus;whiteSpace=wrap;html=1;" vertex="1" parent="1">
          <mxGeometry x="613.5" y="1790" width="117.5" height="70" as="geometry" />
        </mxCell>
        <mxCell id="SFdsLE2ytojVS_g6Q4z1-192" value="" style="edgeStyle=orthogonalEdgeStyle;rounded=0;orthogonalLoop=1;jettySize=auto;html=1;fontColor=#000000;" edge="1" parent="1" source="SFdsLE2ytojVS_g6Q4z1-193" target="SFdsLE2ytojVS_g6Q4z1-196">
          <mxGeometry relative="1" as="geometry" />
        </mxCell>
        <mxCell id="SFdsLE2ytojVS_g6Q4z1-193" value="获取面试安排下所有面试官" style="rounded=0;whiteSpace=wrap;html=1;" vertex="1" parent="1">
          <mxGeometry x="614.75" y="1900" width="115" height="45" as="geometry" />
        </mxCell>
        <mxCell id="SFdsLE2ytojVS_g6Q4z1-194" value="是" style="edgeStyle=orthogonalEdgeStyle;rounded=0;orthogonalLoop=1;jettySize=auto;html=1;fontColor=#000000;" edge="1" parent="1" source="SFdsLE2ytojVS_g6Q4z1-196" target="SFdsLE2ytojVS_g6Q4z1-198">
          <mxGeometry relative="1" as="geometry" />
        </mxCell>
        <mxCell id="SFdsLE2ytojVS_g6Q4z1-195" value="否" style="edgeStyle=orthogonalEdgeStyle;rounded=0;orthogonalLoop=1;jettySize=auto;html=1;entryX=0;entryY=0.5;entryDx=0;entryDy=0;fontColor=#000000;" edge="1" parent="1" source="SFdsLE2ytojVS_g6Q4z1-196" target="SFdsLE2ytojVS_g6Q4z1-200">
          <mxGeometry relative="1" as="geometry" />
        </mxCell>
        <mxCell id="SFdsLE2ytojVS_g6Q4z1-196" value="面试官下是否存在&lt;br&gt;有效日程" style="rhombus;whiteSpace=wrap;html=1;" vertex="1" parent="1">
          <mxGeometry x="613.5" y="1977.5" width="117.5" height="70" as="geometry" />
        </mxCell>
        <mxCell id="SFdsLE2ytojVS_g6Q4z1-207" value="" style="edgeStyle=orthogonalEdgeStyle;rounded=0;orthogonalLoop=1;jettySize=auto;html=1;fontColor=#000000;" edge="1" parent="1" source="SFdsLE2ytojVS_g6Q4z1-198" target="SFdsLE2ytojVS_g6Q4z1-204">
          <mxGeometry relative="1" as="geometry" />
        </mxCell>
        <mxCell id="SFdsLE2ytojVS_g6Q4z1-198" value="给面试官发送邮件、短信、闪电招聘通知" style="rounded=0;whiteSpace=wrap;html=1;" vertex="1" parent="1">
          <mxGeometry x="614.75" y="2100" width="115" height="45" as="geometry" />
        </mxCell>
        <mxCell id="SFdsLE2ytojVS_g6Q4z1-199" value="" style="edgeStyle=orthogonalEdgeStyle;rounded=0;orthogonalLoop=1;jettySize=auto;html=1;fontColor=#000000;" edge="1" parent="1" source="SFdsLE2ytojVS_g6Q4z1-200" target="SFdsLE2ytojVS_g6Q4z1-203">
          <mxGeometry relative="1" as="geometry" />
        </mxCell>
        <mxCell id="SFdsLE2ytojVS_g6Q4z1-200" value="不发通知" style="rounded=0;whiteSpace=wrap;html=1;" vertex="1" parent="1">
          <mxGeometry x="857.25" y="1990" width="115" height="45" as="geometry" />
        </mxCell>
        <mxCell id="SFdsLE2ytojVS_g6Q4z1-201" value="" style="ellipse;html=1;shape=endState;fillColor=#000000;strokeColor=#ff0000;fontColor=#000000;" vertex="1" parent="1">
          <mxGeometry x="657.25" y="2440" width="30" height="30" as="geometry" />
        </mxCell>
        <mxCell id="SFdsLE2ytojVS_g6Q4z1-202" style="edgeStyle=orthogonalEdgeStyle;rounded=0;orthogonalLoop=1;jettySize=auto;html=1;exitX=0.5;exitY=1;exitDx=0;exitDy=0;fontColor=#000000;" edge="1" parent="1" source="SFdsLE2ytojVS_g6Q4z1-200" target="SFdsLE2ytojVS_g6Q4z1-200">
          <mxGeometry relative="1" as="geometry" />
        </mxCell>
        <mxCell id="SFdsLE2ytojVS_g6Q4z1-203" value="" style="ellipse;html=1;shape=endState;fillColor=#000000;strokeColor=#ff0000;fontColor=#000000;" vertex="1" parent="1">
          <mxGeometry x="899.75" y="2100" width="30" height="30" as="geometry" />
        </mxCell>
        <mxCell id="SFdsLE2ytojVS_g6Q4z1-208" value="" style="edgeStyle=orthogonalEdgeStyle;rounded=0;orthogonalLoop=1;jettySize=auto;html=1;fontColor=#000000;" edge="1" parent="1" source="SFdsLE2ytojVS_g6Q4z1-204" target="SFdsLE2ytojVS_g6Q4z1-205">
          <mxGeometry relative="1" as="geometry" />
        </mxCell>
        <mxCell id="SFdsLE2ytojVS_g6Q4z1-204" value="处理待办&lt;br&gt;（关旧建新）" style="rounded=0;whiteSpace=wrap;html=1;" vertex="1" parent="1">
          <mxGeometry x="614.75" y="2182.5" width="115" height="45" as="geometry" />
        </mxCell>
        <mxCell id="SFdsLE2ytojVS_g6Q4z1-209" value="" style="edgeStyle=orthogonalEdgeStyle;rounded=0;orthogonalLoop=1;jettySize=auto;html=1;fontColor=#000000;" edge="1" parent="1" source="SFdsLE2ytojVS_g6Q4z1-205" target="SFdsLE2ytojVS_g6Q4z1-206">
          <mxGeometry relative="1" as="geometry" />
        </mxCell>
        <mxCell id="SFdsLE2ytojVS_g6Q4z1-205" value="同步italen日程&lt;br&gt;（删旧建新）" style="rounded=0;whiteSpace=wrap;html=1;" vertex="1" parent="1">
          <mxGeometry x="614.75" y="2270" width="115" height="45" as="geometry" />
        </mxCell>
        <mxCell id="SFdsLE2ytojVS_g6Q4z1-210" value="" style="edgeStyle=orthogonalEdgeStyle;rounded=0;orthogonalLoop=1;jettySize=auto;html=1;fontColor=#000000;" edge="1" parent="1" source="SFdsLE2ytojVS_g6Q4z1-206" target="SFdsLE2ytojVS_g6Q4z1-201">
          <mxGeometry relative="1" as="geometry" />
        </mxCell>
        <mxCell id="SFdsLE2ytojVS_g6Q4z1-206" value="重置面试官答复状态&lt;br&gt;（未答复）" style="rounded=0;whiteSpace=wrap;html=1;" vertex="1" parent="1">
          <mxGeometry x="614.75" y="2350" width="115" height="45" as="geometry" />
        </mxCell>
      </root>
    </mxGraphModel>
  </diagram>
</mxfile>
